# Made in Blockbench 4.0.1
mtllib fusion_crafting_core.mtl

o vertNW
v -0.375 0.375 -0.375
v -0.375 0.375 -0.4375
v -0.375 -0.375 -0.375
v -0.375 -0.375 -0.4375
v -0.4375 0.375 -0.4375
v -0.4375 0.375 -0.375
v -0.4375 -0.375 -0.4375
v -0.4375 -0.375 -0.375
vt 0 1
vt 0.0625 1
vt 0.0625 0.25
vt 0 0.25
vt 0.0625 1
vt 0.125 1
vt 0.125 0.25
vt 0.0625 0.25
vt 0.125 1
vt 0.1875 1
vt 0.1875 0.25
vt 0.125 0.25
vt 0.25 1
vt 0.1875 1
vt 0.1875 0.25
vt 0.25 0.25
vn 0 0 -1
vn 1 0 0
vn 0 0 1
vn -1 0 0
usemtl m_texture
f 4/4/1 7/3/1 5/2/1 2/1/1
f 3/8/2 4/7/2 2/6/2 1/5/2
f 8/12/3 3/11/3 1/10/3 6/9/3
f 7/16/4 8/15/4 6/14/4 5/13/4
o vertNE
v 0.4375 0.375 -0.375
v 0.4375 0.375 -0.4375
v 0.4375 -0.375 -0.375
v 0.4375 -0.375 -0.4375
v 0.375 0.375 -0.4375
v 0.375 0.375 -0.375
v 0.375 -0.375 -0.4375
v 0.375 -0.375 -0.375
vt 0 1
vt 0.0625 1
vt 0.0625 0.25
vt 0 0.25
vt 0.0625 1
vt 0.125 1
vt 0.125 0.25
vt 0.0625 0.25
vt 0.125 1
vt 0.1875 1
vt 0.1875 0.25
vt 0.125 0.25
vt 0.1875 1
vt 0.25 1
vt 0.25 0.25
vt 0.1875 0.25
vn 0 0 -1
vn 1 0 0
vn 0 0 1
vn -1 0 0
usemtl m_texture
f 12/20/5 15/19/5 13/18/5 10/17/5
f 11/24/6 12/23/6 10/22/6 9/21/6
f 16/28/7 11/27/7 9/26/7 14/25/7
f 15/32/8 16/31/8 14/30/8 13/29/8
o vertSW
v -0.375 0.375 0.4375
v -0.375 0.375 0.375
v -0.375 -0.375 0.4375
v -0.375 -0.375 0.375
v -0.4375 0.375 0.375
v -0.4375 0.375 0.4375
v -0.4375 -0.375 0.375
v -0.4375 -0.375 0.4375
vt 0 1
vt 0.0625 1
vt 0.0625 0.25
vt 0 0.25
vt 0.0625 1
vt 0.125 1
vt 0.125 0.25
vt 0.0625 0.25
vt 0.125 1
vt 0.1875 1
vt 0.1875 0.25
vt 0.125 0.25
vt 0.1875 1
vt 0.25 1
vt 0.25 0.25
vt 0.1875 0.25
vn 0 0 -1
vn 1 0 0
vn 0 0 1
vn -1 0 0
usemtl m_texture
f 20/36/9 23/35/9 21/34/9 18/33/9
f 19/40/10 20/39/10 18/38/10 17/37/10
f 24/44/11 19/43/11 17/42/11 22/41/11
f 23/48/12 24/47/12 22/46/12 21/45/12
o vertSE
v 0.4375 0.375 0.4375
v 0.4375 0.375 0.375
v 0.4375 -0.375 0.4375
v 0.4375 -0.375 0.375
v 0.375 0.375 0.375
v 0.375 0.375 0.4375
v 0.375 -0.375 0.375
v 0.375 -0.375 0.4375
vt 0 1
vt 0.0625 1
vt 0.0625 0.25
vt 0 0.25
vt 0.0625 1
vt 0.125 1
vt 0.125 0.25
vt 0.0625 0.25
vt 0.125 1
vt 0.1875 1
vt 0.1875 0.25
vt 0.125 0.25
vt 0.1875 1
vt 0.25 1
vt 0.25 0.25
vt 0.1875 0.25
vn 0 0 -1
vn 1 0 0
vn 0 0 1
vn -1 0 0
usemtl m_texture
f 28/52/13 31/51/13 29/50/13 26/49/13
f 27/56/14 28/55/14 26/54/14 25/53/14
f 32/60/15 27/59/15 25/58/15 30/57/15
f 31/64/16 32/63/16 30/62/16 29/61/16
o cross1
v 0.375 0.4375 -0.375
v 0.375 0.4375 -0.4375
v 0.375 0.375 -0.375
v 0.375 0.375 -0.4375
v -0.375 0.4375 -0.4375
v -0.375 0.4375 -0.375
v -0.375 0.375 -0.4375
v -0.375 0.375 -0.375
vt 0 1
vt 0.0625 1
vt 0.0625 0.25
vt 0 0.25
vt 0.0625 1
vt 0.125 1
vt 0.125 0.25
vt 0.0625 0.25
vt 0.125 1
vt 0.1875 1
vt 0.1875 0.25
vt 0.125 0.25
vt 0.1875 1
vt 0.25 1
vt 0.25 0.25
vt 0.1875 0.25
vn 0 0 -1
vn 0 0 1
vn 0 1 0
vn 0 -1 0
usemtl m_texture
f 36/68/17 39/67/17 37/66/17 34/65/17
f 40/72/18 35/71/18 33/70/18 38/69/18
f 38/76/19 33/75/19 34/74/19 37/73/19
f 39/80/20 36/79/20 35/78/20 40/77/20
o cross2
v 0.375 -0.375 0.4375
v 0.375 -0.375 0.375
v 0.375 -0.4375 0.4375
v 0.375 -0.4375 0.375
v -0.375 -0.375 0.375
v -0.375 -0.375 0.4375
v -0.375 -0.4375 0.375
v -0.375 -0.4375 0.4375
vt 0 1
vt 0.0625 1
vt 0.0625 0.25
vt 0 0.25
vt 0.0625 1
vt 0.125 1
vt 0.125 0.25
vt 0.0625 0.25
vt 0.1875 1
vt 0.125 1
vt 0.125 0.25
vt 0.1875 0.25
vt 0.1875 1
vt 0.25 1
vt 0.25 0.25
vt 0.1875 0.25
vn 0 0 -1
vn 0 0 1
vn 0 1 0
vn 0 -1 0
usemtl m_texture
f 44/84/21 47/83/21 45/82/21 42/81/21
f 48/88/22 43/87/22 41/86/22 46/85/22
f 46/92/23 41/91/23 42/90/23 45/89/23
f 47/96/24 44/95/24 43/94/24 48/93/24
o cross3
v 0.375 0.4375 0.4375
v 0.375 0.4375 0.375
v 0.375 0.375 0.4375
v 0.375 0.375 0.375
v -0.375 0.4375 0.375
v -0.375 0.4375 0.4375
v -0.375 0.375 0.375
v -0.375 0.375 0.4375
vt 0 1
vt 0.0625 1
vt 0.0625 0.25
vt 0 0.25
vt 0.0625 1
vt 0.125 1
vt 0.125 0.25
vt 0.0625 0.25
vt 0.125 1
vt 0.1875 1
vt 0.1875 0.25
vt 0.125 0.25
vt 0.1875 1
vt 0.25 1
vt 0.25 0.25
vt 0.1875 0.25
vn 0 0 -1
vn 0 0 1
vn 0 1 0
vn 0 -1 0
usemtl m_texture
f 52/100/25 55/99/25 53/98/25 50/97/25
f 56/104/26 51/103/26 49/102/26 54/101/26
f 54/108/27 49/107/27 50/106/27 53/105/27
f 55/112/28 52/111/28 51/110/28 56/109/28
o cross4
v 0.375 -0.375 -0.375
v 0.375 -0.375 -0.4375
v 0.375 -0.4375 -0.375
v 0.375 -0.4375 -0.4375
v -0.375 -0.375 -0.4375
v -0.375 -0.375 -0.375
v -0.375 -0.4375 -0.4375
v -0.375 -0.4375 -0.375
vt 0 1
vt 0.0625 1
vt 0.0625 0.25
vt 0 0.25
vt 0.0625 1
vt 0.125 1
vt 0.125 0.25
vt 0.0625 0.25
vt 0.125 1
vt 0.1875 1
vt 0.1875 0.25
vt 0.125 0.25
vt 0.1875 1
vt 0.25 1
vt 0.25 0.25
vt 0.1875 0.25
vn 0 0 -1
vn 0 0 1
vn 0 1 0
vn 0 -1 0
usemtl m_texture
f 60/116/29 63/115/29 61/114/29 58/113/29
f 64/120/30 59/119/30 57/118/30 62/117/30
f 62/124/31 57/123/31 58/122/31 61/121/31
f 63/128/32 60/127/32 59/126/32 64/125/32
o cross5
v -0.375 -0.375 0.375
v -0.375 -0.375 -0.375
v -0.375 -0.4375 0.375
v -0.375 -0.4375 -0.375
v -0.4375 -0.375 -0.375
v -0.4375 -0.375 0.375
v -0.4375 -0.4375 -0.375
v -0.4375 -0.4375 0.375
vt 0 1
vt 0.0625 1
vt 0.0625 0.25
vt 0 0.25
vt 0.0625 1
vt 0.125 1
vt 0.125 0.25
vt 0.0625 0.25
vt 0.125 1
vt 0.1875 1
vt 0.1875 0.25
vt 0.125 0.25
vt 0.1875 1
vt 0.25 1
vt 0.25 0.25
vt 0.1875 0.25
vn 1 0 0
vn -1 0 0
vn 0 1 0
vn 0 -1 0
usemtl m_texture
f 67/132/33 68/131/33 66/130/33 65/129/33
f 71/136/34 72/135/34 70/134/34 69/133/34
f 70/140/35 65/139/35 66/138/35 69/137/35
f 71/144/36 68/143/36 67/142/36 72/141/36
o cross6
v -0.375 0.4375 0.375
v -0.375 0.4375 -0.375
v -0.375 0.375 0.375
v -0.375 0.375 -0.375
v -0.4375 0.4375 -0.375
v -0.4375 0.4375 0.375
v -0.4375 0.375 -0.375
v -0.4375 0.375 0.375
vt 0 1
vt 0.0625 1
vt 0.0625 0.25
vt 0 0.25
vt 0.0625 1
vt 0.125 1
vt 0.125 0.25
vt 0.0625 0.25
vt 0.125 1
vt 0.1875 1
vt 0.1875 0.25
vt 0.125 0.25
vt 0.1875 1
vt 0.25 1
vt 0.25 0.25
vt 0.1875 0.25
vn 1 0 0
vn -1 0 0
vn 0 1 0
vn 0 -1 0
usemtl m_texture
f 75/148/37 76/147/37 74/146/37 73/145/37
f 79/152/38 80/151/38 78/150/38 77/149/38
f 78/156/39 73/155/39 74/154/39 77/153/39
f 79/160/40 76/159/40 75/158/40 80/157/40
o cross7
v 0.4375 0.4375 0.375
v 0.4375 0.4375 -0.375
v 0.4375 0.375 0.375
v 0.4375 0.375 -0.375
v 0.375 0.4375 -0.375
v 0.375 0.4375 0.375
v 0.375 0.375 -0.375
v 0.375 0.375 0.375
vt 0 1
vt 0.0625 1
vt 0.0625 0.25
vt 0 0.25
vt 0.0625 1
vt 0.125 1
vt 0.125 0.25
vt 0.0625 0.25
vt 0.125 1
vt 0.1875 1
vt 0.1875 0.25
vt 0.125 0.25
vt 0.1875 1
vt 0.25 1
vt 0.25 0.25
vt 0.1875 0.25
vn 1 0 0
vn -1 0 0
vn 0 1 0
vn 0 -1 0
usemtl m_texture
f 83/164/41 84/163/41 82/162/41 81/161/41
f 87/168/42 88/167/42 86/166/42 85/165/42
f 86/172/43 81/171/43 82/170/43 85/169/43
f 87/176/44 84/175/44 83/174/44 88/173/44
o cross8
v 0.4375 -0.375 0.375
v 0.4375 -0.375 -0.375
v 0.4375 -0.4375 0.375
v 0.4375 -0.4375 -0.375
v 0.375 -0.375 -0.375
v 0.375 -0.375 0.375
v 0.375 -0.4375 -0.375
v 0.375 -0.4375 0.375
vt 0 1
vt 0.0625 1
vt 0.0625 0.25
vt 0 0.25
vt 0.0625 1
vt 0.125 1
vt 0.125 0.25
vt 0.0625 0.25
vt 0.125 1
vt 0.1875 1
vt 0.1875 0.25
vt 0.125 0.25
vt 0.1875 1
vt 0.25 1
vt 0.25 0.25
vt 0.1875 0.25
vn 1 0 0
vn -1 0 0
vn 0 1 0
vn 0 -1 0
usemtl m_texture
f 91/180/45 92/179/45 90/178/45 89/177/45
f 95/184/46 96/183/46 94/182/46 93/181/46
f 94/188/47 89/187/47 90/186/47 93/185/47
f 95/192/48 92/191/48 91/190/48 96/189/48
o corner1
v -0.375 -0.375 -0.375
v -0.375 -0.375 -0.5
v -0.375 -0.5 -0.375
v -0.375 -0.5 -0.5
v -0.5 -0.375 -0.5
v -0.5 -0.375 -0.375
v -0.5 -0.5 -0.5
v -0.5 -0.5 -0.375
vt 0.25 1
vt 0.375 1
vt 0.375 0.875
vt 0.25 0.875
vt 0.375 1
vt 0.5 1
vt 0.5 0.875
vt 0.375 0.875
vt 0.25 0.875
vt 0.375 0.875
vt 0.375 0.75
vt 0.25 0.75
vt 0.375 0.875
vt 0.5 0.875
vt 0.5 0.75
vt 0.375 0.75
vt 0.3125 1
vt 0.4375 1
vt 0.4375 0.875
vt 0.3125 0.875
vt 0.3125 0.875
vt 0.4375 0.875
vt 0.4375 0.75
vt 0.3125 0.75
vn 0 0 -1
vn 1 0 0
vn 0 0 1
vn -1 0 0
vn 0 1 0
vn 0 -1 0
usemtl m_texture
f 100/196/49 103/195/49 101/194/49 98/193/49
f 99/200/50 100/199/50 98/198/50 97/197/50
f 104/204/51 99/203/51 97/202/51 102/201/51
f 103/208/52 104/207/52 102/206/52 101/205/52
f 102/212/53 97/211/53 98/210/53 101/209/53
f 103/216/54 100/215/54 99/214/54 104/213/54
o corner2
v 0.5 -0.375 -0.375
v 0.5 -0.375 -0.5
v 0.5 -0.5 -0.375
v 0.5 -0.5 -0.5
v 0.375 -0.375 -0.5
v 0.375 -0.375 -0.375
v 0.375 -0.5 -0.5
v 0.375 -0.5 -0.375
vt 0.25 1
vt 0.375 1
vt 0.375 0.875
vt 0.25 0.875
vt 0.375 1
vt 0.5 1
vt 0.5 0.875
vt 0.375 0.875
vt 0.25 0.875
vt 0.375 0.875
vt 0.375 0.75
vt 0.25 0.75
vt 0.375 0.875
vt 0.5 0.875
vt 0.5 0.75
vt 0.375 0.75
vt 0.3125 1
vt 0.4375 1
vt 0.4375 0.875
vt 0.3125 0.875
vt 0.3125 0.875
vt 0.4375 0.875
vt 0.4375 0.75
vt 0.3125 0.75
vn 0 0 -1
vn 1 0 0
vn 0 0 1
vn -1 0 0
vn 0 1 0
vn 0 -1 0
usemtl m_texture
f 108/220/55 111/219/55 109/218/55 106/217/55
f 107/224/56 108/223/56 106/222/56 105/221/56
f 112/228/57 107/227/57 105/226/57 110/225/57
f 111/232/58 112/231/58 110/230/58 109/229/58
f 110/236/59 105/235/59 106/234/59 109/233/59
f 111/240/60 108/239/60 107/238/60 112/237/60
o corner3
v -0.375 -0.375 0.5
v -0.375 -0.375 0.375
v -0.375 -0.5 0.5
v -0.375 -0.5 0.375
v -0.5 -0.375 0.375
v -0.5 -0.375 0.5
v -0.5 -0.5 0.375
v -0.5 -0.5 0.5
vt 0.25 1
vt 0.375 1
vt 0.375 0.875
vt 0.25 0.875
vt 0.375 1
vt 0.5 1
vt 0.5 0.875
vt 0.375 0.875
vt 0.25 0.875
vt 0.375 0.875
vt 0.375 0.75
vt 0.25 0.75
vt 0.375 0.875
vt 0.5 0.875
vt 0.5 0.75
vt 0.375 0.75
vt 0.3125 1
vt 0.4375 1
vt 0.4375 0.875
vt 0.3125 0.875
vt 0.3125 0.875
vt 0.4375 0.875
vt 0.4375 0.75
vt 0.3125 0.75
vn 0 0 -1
vn 1 0 0
vn 0 0 1
vn -1 0 0
vn 0 1 0
vn 0 -1 0
usemtl m_texture
f 116/244/61 119/243/61 117/242/61 114/241/61
f 115/248/62 116/247/62 114/246/62 113/245/62
f 120/252/63 115/251/63 113/250/63 118/249/63
f 119/256/64 120/255/64 118/254/64 117/253/64
f 118/260/65 113/259/65 114/258/65 117/257/65
f 119/264/66 116/263/66 115/262/66 120/261/66
o corner4
v 0.5 -0.375 0.5
v 0.5 -0.375 0.375
v 0.5 -0.5 0.5
v 0.5 -0.5 0.375
v 0.375 -0.375 0.375
v 0.375 -0.375 0.5
v 0.375 -0.5 0.375
v 0.375 -0.5 0.5
vt 0.25 1
vt 0.375 1
vt 0.375 0.875
vt 0.25 0.875
vt 0.375 1
vt 0.5 1
vt 0.5 0.875
vt 0.375 0.875
vt 0.25 0.875
vt 0.375 0.875
vt 0.375 0.75
vt 0.25 0.75
vt 0.375 0.875
vt 0.5 0.875
vt 0.5 0.75
vt 0.375 0.75
vt 0.3125 1
vt 0.4375 1
vt 0.4375 0.875
vt 0.3125 0.875
vt 0.3125 0.875
vt 0.4375 0.875
vt 0.4375 0.75
vt 0.3125 0.75
vn 0 0 -1
vn 1 0 0
vn 0 0 1
vn -1 0 0
vn 0 1 0
vn 0 -1 0
usemtl m_texture
f 124/268/67 127/267/67 125/266/67 122/265/67
f 123/272/68 124/271/68 122/270/68 121/269/68
f 128/276/69 123/275/69 121/274/69 126/273/69
f 127/280/70 128/279/70 126/278/70 125/277/70
f 126/284/71 121/283/71 122/282/71 125/281/71
f 127/288/72 124/287/72 123/286/72 128/285/72
o corner5
v -0.375 0.5 -0.375
v -0.375 0.5 -0.5
v -0.375 0.375 -0.375
v -0.375 0.375 -0.5
v -0.5 0.5 -0.5
v -0.5 0.5 -0.375
v -0.5 0.375 -0.5
v -0.5 0.375 -0.375
vt 0.25 1
vt 0.375 1
vt 0.375 0.875
vt 0.25 0.875
vt 0.375 1
vt 0.5 1
vt 0.5 0.875
vt 0.375 0.875
vt 0.25 0.875
vt 0.375 0.875
vt 0.375 0.75
vt 0.25 0.75
vt 0.375 0.875
vt 0.5 0.875
vt 0.5 0.75
vt 0.375 0.75
vt 0.3125 1
vt 0.4375 1
vt 0.4375 0.875
vt 0.3125 0.875
vt 0.3125 0.875
vt 0.4375 0.875
vt 0.4375 0.75
vt 0.3125 0.75
vn 0 0 -1
vn 1 0 0
vn 0 0 1
vn -1 0 0
vn 0 1 0
vn 0 -1 0
usemtl m_texture
f 132/292/73 135/291/73 133/290/73 130/289/73
f 131/296/74 132/295/74 130/294/74 129/293/74
f 136/300/75 131/299/75 129/298/75 134/297/75
f 135/304/76 136/303/76 134/302/76 133/301/76
f 134/308/77 129/307/77 130/306/77 133/305/77
f 135/312/78 132/311/78 131/310/78 136/309/78
o corner6
v 0.5 0.5 -0.375
v 0.5 0.5 -0.5
v 0.5 0.375 -0.375
v 0.5 0.375 -0.5
v 0.375 0.5 -0.5
v 0.375 0.5 -0.375
v 0.375 0.375 -0.5
v 0.375 0.375 -0.375
vt 0.25 1
vt 0.375 1
vt 0.375 0.875
vt 0.25 0.875
vt 0.375 1
vt 0.5 1
vt 0.5 0.875
vt 0.375 0.875
vt 0.25 0.875
vt 0.375 0.875
vt 0.375 0.75
vt 0.25 0.75
vt 0.375 0.875
vt 0.5 0.875
vt 0.5 0.75
vt 0.375 0.75
vt 0.3125 1
vt 0.4375 1
vt 0.4375 0.875
vt 0.3125 0.875
vt 0.3125 0.875
vt 0.4375 0.875
vt 0.4375 0.75
vt 0.3125 0.75
vn 0 0 -1
vn 1 0 0
vn 0 0 1
vn -1 0 0
vn 0 1 0
vn 0 -1 0
usemtl m_texture
f 140/316/79 143/315/79 141/314/79 138/313/79
f 139/320/80 140/319/80 138/318/80 137/317/80
f 144/324/81 139/323/81 137/322/81 142/321/81
f 143/328/82 144/327/82 142/326/82 141/325/82
f 142/332/83 137/331/83 138/330/83 141/329/83
f 143/336/84 140/335/84 139/334/84 144/333/84
o corner7
v -0.375 0.5 0.5
v -0.375 0.5 0.375
v -0.375 0.375 0.5
v -0.375 0.375 0.375
v -0.5 0.5 0.375
v -0.5 0.5 0.5
v -0.5 0.375 0.375
v -0.5 0.375 0.5
vt 0.25 1
vt 0.375 1
vt 0.375 0.875
vt 0.25 0.875
vt 0.375 1
vt 0.5 1
vt 0.5 0.875
vt 0.375 0.875
vt 0.25 0.875
vt 0.375 0.875
vt 0.375 0.75
vt 0.25 0.75
vt 0.375 0.875
vt 0.5 0.875
vt 0.5 0.75
vt 0.375 0.75
vt 0.3125 1
vt 0.4375 1
vt 0.4375 0.875
vt 0.3125 0.875
vt 0.3125 0.875
vt 0.4375 0.875
vt 0.4375 0.75
vt 0.3125 0.75
vn 0 0 -1
vn 1 0 0
vn 0 0 1
vn -1 0 0
vn 0 1 0
vn 0 -1 0
usemtl m_texture
f 148/340/85 151/339/85 149/338/85 146/337/85
f 147/344/86 148/343/86 146/342/86 145/341/86
f 152/348/87 147/347/87 145/346/87 150/345/87
f 151/352/88 152/351/88 150/350/88 149/349/88
f 150/356/89 145/355/89 146/354/89 149/353/89
f 151/360/90 148/359/90 147/358/90 152/357/90
o corner8
v 0.5 0.5 0.5
v 0.5 0.5 0.375
v 0.5 0.375 0.5
v 0.5 0.375 0.375
v 0.375 0.5 0.375
v 0.375 0.5 0.5
v 0.375 0.375 0.375
v 0.375 0.375 0.5
vt 0.25 1
vt 0.375 1
vt 0.375 0.875
vt 0.25 0.875
vt 0.375 1
vt 0.5 1
vt 0.5 0.875
vt 0.375 0.875
vt 0.25 0.875
vt 0.375 0.875
vt 0.375 0.75
vt 0.25 0.75
vt 0.375 0.875
vt 0.5 0.875
vt 0.5 0.75
vt 0.375 0.75
vt 0.3125 1
vt 0.4375 1
vt 0.4375 0.875
vt 0.3125 0.875
vt 0.3125 0.875
vt 0.4375 0.875
vt 0.4375 0.75
vt 0.3125 0.75
vn 0 0 -1
vn 1 0 0
vn 0 0 1
vn -1 0 0
vn 0 1 0
vn 0 -1 0
usemtl m_texture
f 156/364/91 159/363/91 157/362/91 154/361/91
f 155/368/92 156/367/92 154/366/92 153/365/92
f 160/372/93 155/371/93 153/370/93 158/369/93
f 159/376/94 160/375/94 158/374/94 157/373/94
f 158/380/95 153/379/95 154/378/95 157/377/95
f 159/384/96 156/383/96 155/382/96 160/381/96
o disk1
v -0.3125 -0.1875 -0.3125
v -0.3125 -0.1875 -0.5
v -0.3125 -0.25 -0.3125
v -0.3125 -0.25 -0.5
v -0.5 -0.1875 -0.5
v -0.5 -0.1875 -0.3125
v -0.5 -0.25 -0.5
v -0.5 -0.25 -0.3125
vt 0.5 1
vt 0.6875 1
vt 0.6875 0.9375
vt 0.5 0.9375
vt 0.5 0.875
vt 0.6875 0.875
vt 0.6875 0.8125
vt 0.5 0.8125
vt 0.5 1
vt 0.6875 1
vt 0.6875 0.9375
vt 0.5 0.9375
vt 0.5 0.875
vt 0.6875 0.875
vt 0.6875 0.8125
vt 0.5 0.8125
vt 0.5 1
vt 0.6875 1
vt 0.6875 0.8125
vt 0.5 0.8125
vt 0.6875 1
vt 0.875 1
vt 0.875 0.8125
vt 0.6875 0.8125
vn 0 0 -1
vn 1 0 0
vn 0 0 1
vn -1 0 0
vn 0 1 0
vn 0 -1 0
usemtl m_texture
f 164/388/97 167/387/97 165/386/97 162/385/97
f 163/392/98 164/391/98 162/390/98 161/389/98
f 168/396/99 163/395/99 161/394/99 166/393/99
f 167/400/100 168/399/100 166/398/100 165/397/100
f 166/404/101 161/403/101 162/402/101 165/401/101
f 167/408/102 164/407/102 163/406/102 168/405/102
o disk2
v 0.5 -0.1875 -0.3125
v 0.5 -0.1875 -0.5
v 0.5 -0.25 -0.3125
v 0.5 -0.25 -0.5
v 0.3125 -0.1875 -0.5
v 0.3125 -0.1875 -0.3125
v 0.3125 -0.25 -0.5
v 0.3125 -0.25 -0.3125
vt 0.5 1
vt 0.6875 1
vt 0.6875 0.9375
vt 0.5 0.9375
vt 0.6875 1
vt 0.875 1
vt 0.875 0.9375
vt 0.6875 0.9375
vt 0.5 0.875
vt 0.6875 0.875
vt 0.6875 0.8125
vt 0.5 0.8125
vt 0.6875 0.875
vt 0.875 0.875
vt 0.875 0.8125
vt 0.6875 0.8125
vt 0.5 1
vt 0.6875 1
vt 0.6875 0.8125
vt 0.5 0.8125
vt 0.6875 1
vt 0.875 1
vt 0.875 0.8125
vt 0.6875 0.8125
vn 0 0 -1
vn 1 0 0
vn 0 0 1
vn -1 0 0
vn 0 1 0
vn 0 -1 0
usemtl m_texture
f 172/412/103 175/411/103 173/410/103 170/409/103
f 171/416/104 172/415/104 170/414/104 169/413/104
f 176/420/105 171/419/105 169/418/105 174/417/105
f 175/424/106 176/423/106 174/422/106 173/421/106
f 174/428/107 169/427/107 170/426/107 173/425/107
f 175/432/108 172/431/108 171/430/108 176/429/108
o disk3
v -0.3125 -0.1875 0.5
v -0.3125 -0.1875 0.3125
v -0.3125 -0.25 0.5
v -0.3125 -0.25 0.3125
v -0.5 -0.1875 0.3125
v -0.5 -0.1875 0.5
v -0.5 -0.25 0.3125
v -0.5 -0.25 0.5
vt 0.5 1
vt 0.6875 1
vt 0.6875 0.9375
vt 0.5 0.9375
vt 0.6875 1
vt 0.875 1
vt 0.875 0.9375
vt 0.6875 0.9375
vt 0.5 0.875
vt 0.6875 0.875
vt 0.6875 0.8125
vt 0.5 0.8125
vt 0.6875 0.875
vt 0.875 0.875
vt 0.875 0.8125
vt 0.6875 0.8125
vt 0.5 1
vt 0.6875 1
vt 0.6875 0.8125
vt 0.5 0.8125
vt 0.6875 1
vt 0.875 1
vt 0.875 0.8125
vt 0.6875 0.8125
vn 0 0 -1
vn 1 0 0
vn 0 0 1
vn -1 0 0
vn 0 1 0
vn 0 -1 0
usemtl m_texture
f 180/436/109 183/435/109 181/434/109 178/433/109
f 179/440/110 180/439/110 178/438/110 177/437/110
f 184/444/111 179/443/111 177/442/111 182/441/111
f 183/448/112 184/447/112 182/446/112 181/445/112
f 182/452/113 177/451/113 178/450/113 181/449/113
f 183/456/114 180/455/114 179/454/114 184/453/114
o disk4
v 0.5 -0.1875 0.5
v 0.5 -0.1875 0.3125
v 0.5 -0.25 0.5
v 0.5 -0.25 0.3125
v 0.3125 -0.1875 0.3125
v 0.3125 -0.1875 0.5
v 0.3125 -0.25 0.3125
v 0.3125 -0.25 0.5
vt 0.5 1
vt 0.6875 1
vt 0.6875 0.9375
vt 0.5 0.9375
vt 0.6875 1
vt 0.875 1
vt 0.875 0.9375
vt 0.6875 0.9375
vt 0.5 0.875
vt 0.6875 0.875
vt 0.6875 0.8125
vt 0.5 0.8125
vt 0.6875 0.875
vt 0.875 0.875
vt 0.875 0.8125
vt 0.6875 0.8125
vt 0.5 1
vt 0.6875 1
vt 0.6875 0.8125
vt 0.5 0.8125
vt 0.6875 1
vt 0.875 1
vt 0.875 0.8125
vt 0.6875 0.8125
vn 0 0 -1
vn 1 0 0
vn 0 0 1
vn -1 0 0
vn 0 1 0
vn 0 -1 0
usemtl m_texture
f 188/460/115 191/459/115 189/458/115 186/457/115
f 187/464/116 188/463/116 186/462/116 185/461/116
f 192/468/117 187/467/117 185/466/117 190/465/117
f 191/472/118 192/471/118 190/470/118 189/469/118
f 190/476/119 185/475/119 186/474/119 189/473/119
f 191/480/120 188/479/120 187/478/120 192/477/120
o disk5
v -0.3125 0.25 -0.3125
v -0.3125 0.25 -0.5
v -0.3125 0.1875 -0.3125
v -0.3125 0.1875 -0.5
v -0.5 0.25 -0.5
v -0.5 0.25 -0.3125
v -0.5 0.1875 -0.5
v -0.5 0.1875 -0.3125
vt 0.5 1
vt 0.6875 1
vt 0.6875 0.9375
vt 0.5 0.9375
vt 0.6875 1
vt 0.875 1
vt 0.875 0.9375
vt 0.6875 0.9375
vt 0.5 0.875
vt 0.6875 0.875
vt 0.6875 0.8125
vt 0.5 0.8125
vt 0.75 0.875
vt 0.9375 0.875
vt 0.9375 0.8125
vt 0.75 0.8125
vt 0.5 1
vt 0.6875 1
vt 0.6875 0.8125
vt 0.5 0.8125
vt 0.6875 1
vt 0.875 1
vt 0.875 0.8125
vt 0.6875 0.8125
vn 0 0 -1
vn 1 0 0
vn 0 0 1
vn -1 0 0
vn 0 1 0
vn 0 -1 0
usemtl m_texture
f 196/484/121 199/483/121 197/482/121 194/481/121
f 195/488/122 196/487/122 194/486/122 193/485/122
f 200/492/123 195/491/123 193/490/123 198/489/123
f 199/496/124 200/495/124 198/494/124 197/493/124
f 198/500/125 193/499/125 194/498/125 197/497/125
f 199/504/126 196/503/126 195/502/126 200/501/126
o disk6
v 0.5 0.25 -0.3125
v 0.5 0.25 -0.5
v 0.5 0.1875 -0.3125
v 0.5 0.1875 -0.5
v 0.3125 0.25 -0.5
v 0.3125 0.25 -0.3125
v 0.3125 0.1875 -0.5
v 0.3125 0.1875 -0.3125
vt 0.5 1
vt 0.6875 1
vt 0.6875 0.9375
vt 0.5 0.9375
vt 0.6875 1
vt 0.875 1
vt 0.875 0.9375
vt 0.6875 0.9375
vt 0.5 0.875
vt 0.6875 0.875
vt 0.6875 0.8125
vt 0.5 0.8125
vt 0.6875 0.875
vt 0.875 0.875
vt 0.875 0.8125
vt 0.6875 0.8125
vt 0.5 1
vt 0.6875 1
vt 0.6875 0.8125
vt 0.5 0.8125
vt 0.6875 1
vt 0.875 1
vt 0.875 0.8125
vt 0.6875 0.8125
vn 0 0 -1
vn 1 0 0
vn 0 0 1
vn -1 0 0
vn 0 1 0
vn 0 -1 0
usemtl m_texture
f 204/508/127 207/507/127 205/506/127 202/505/127
f 203/512/128 204/511/128 202/510/128 201/509/128
f 208/516/129 203/515/129 201/514/129 206/513/129
f 207/520/130 208/519/130 206/518/130 205/517/130
f 206/524/131 201/523/131 202/522/131 205/521/131
f 207/528/132 204/527/132 203/526/132 208/525/132
o disk7
v -0.3125 0.25 0.5
v -0.3125 0.25 0.3125
v -0.3125 0.1875 0.5
v -0.3125 0.1875 0.3125
v -0.5 0.25 0.3125
v -0.5 0.25 0.5
v -0.5 0.1875 0.3125
v -0.5 0.1875 0.5
vt 0.5 1
vt 0.6875 1
vt 0.6875 0.9375
vt 0.5 0.9375
vt 0.6875 1
vt 0.875 1
vt 0.875 0.9375
vt 0.6875 0.9375
vt 0.5 0.875
vt 0.6875 0.875
vt 0.6875 0.8125
vt 0.5 0.8125
vt 0.6875 0.875
vt 0.875 0.875
vt 0.875 0.8125
vt 0.6875 0.8125
vt 0.5 1
vt 0.6875 1
vt 0.6875 0.8125
vt 0.5 0.8125
vt 0.6875 1
vt 0.875 1
vt 0.875 0.8125
vt 0.6875 0.8125
vn 0 0 -1
vn 1 0 0
vn 0 0 1
vn -1 0 0
vn 0 1 0
vn 0 -1 0
usemtl m_texture
f 212/532/133 215/531/133 213/530/133 210/529/133
f 211/536/134 212/535/134 210/534/134 209/533/134
f 216/540/135 211/539/135 209/538/135 214/537/135
f 215/544/136 216/543/136 214/542/136 213/541/136
f 214/548/137 209/547/137 210/546/137 213/545/137
f 215/552/138 212/551/138 211/550/138 216/549/138
o disk8
v 0.5 0.25 0.5
v 0.5 0.25 0.3125
v 0.5 0.1875 0.5
v 0.5 0.1875 0.3125
v 0.3125 0.25 0.3125
v 0.3125 0.25 0.5
v 0.3125 0.1875 0.3125
v 0.3125 0.1875 0.5
vt 0.5 1
vt 0.6875 1
vt 0.6875 0.9375
vt 0.5 0.9375
vt 0.6875 1
vt 0.875 1
vt 0.875 0.9375
vt 0.6875 0.9375
vt 0.5 0.875
vt 0.6875 0.875
vt 0.6875 0.8125
vt 0.5 0.8125
vt 0.6875 0.875
vt 0.875 0.875
vt 0.875 0.8125
vt 0.6875 0.8125
vt 0.5 1
vt 0.6875 1
vt 0.6875 0.8125
vt 0.5 0.8125
vt 0.6875 1
vt 0.875 1
vt 0.875 0.8125
vt 0.6875 0.8125
vn 0 0 -1
vn 1 0 0
vn 0 0 1
vn -1 0 0
vn 0 1 0
vn 0 -1 0
usemtl m_texture
f 220/556/139 223/555/139 221/554/139 218/553/139
f 219/560/140 220/559/140 218/558/140 217/557/140
f 224/564/141 219/563/141 217/562/141 222/561/141
f 223/568/142 224/567/142 222/566/142 221/565/142
f 222/572/143 217/571/143 218/570/143 221/569/143
f 223/576/144 220/575/144 219/574/144 224/573/144